<svg width="64" height="31" viewBox="0 0 64 31" fill="none" xmlns="http://www.w3.org/2000/svg">
<path d="M15.4531 12.5C14.6094 12.5625 13.8802 12.901 13.2656 13.5156C12.599 14.1823 12.2656 14.9948 12.2656 15.9531C12.2656 16.901 12.6042 17.7083 13.2812 18.375C13.8958 19 14.6354 19.3385 15.5 19.3906H15.5781C16.526 19.3906 17.3333 19.0521 18 18.375C18.6771 17.7083 19.0156 16.901 19.0156 15.9531C19.0156 14.9948 18.6823 14.1823 18.0156 13.5156C17.3385 12.8385 16.526 12.5 15.5781 12.5H15.4531ZM24.1719 16.6094C24.2865 17.276 24.6094 17.8698 25.1406 18.3906C25.8177 19.0677 26.625 19.4062 27.5625 19.4062H28.7031V24.7188H27.5625C25.2083 24.7188 23.1771 23.8958 21.4688 22.25C19.7708 23.8854 17.7552 24.7031 15.4219 24.7031H15.1562C12.9271 24.6094 11 23.75 9.375 22.125C8.05208 20.8125 7.23438 19.3021 6.92188 17.5938C6.74479 17.7188 6.57292 17.8646 6.40625 18.0312C5.6875 18.7292 5.32812 19.5781 5.32812 20.5781V30.7656H2.65625C1.92708 30.7656 1.30208 30.5052 0.78125 29.9844C0.260417 29.474 0 28.849 0 28.1094L0.03125 20.5781C0.0520833 18.1094 0.927083 16.0052 2.65625 14.2656C4.125 12.7969 5.85938 11.9479 7.85938 11.7188C8.25521 11.0208 8.75521 10.3698 9.35938 9.76562C11.026 8.09896 13.0208 7.23958 15.3438 7.1875H15.4219C17.8281 7.1875 19.8906 8.04688 21.6094 9.76562C23.3281 11.4844 24.1875 13.5469 24.1875 15.9531C24.1875 16.1719 24.1823 16.3906 24.1719 16.6094ZM38.4219 15.7969C38.4219 16.7969 38.7812 17.6458 39.5 18.3438C40.2083 19.0521 41.0625 19.4062 42.0625 19.4062H43.125V24.7188H42.0625C39.6146 24.7188 37.5104 23.849 35.75 22.1094C34.0417 23.7969 32 24.6667 29.625 24.7188H28.3125V19.4062H29.625C30.5833 19.3542 31.401 18.9792 32.0781 18.2812C32.7448 17.5833 33.0781 16.7552 33.0781 15.7969L33.1094 2.98438C33.1094 2.25521 33.3698 1.63021 33.8906 1.10938C34.401 0.588542 35.0208 0.328125 35.75 0.328125H38.4219V15.7969ZM42.2656 19.4062H56.1094C56.7448 19.4062 57.2917 19.1979 57.75 18.7812C58.2083 18.375 58.4375 17.8802 58.4375 17.2969C58.4375 16.7135 58.2083 16.2135 57.75 15.7969C57.2917 15.3802 56.7448 15.1719 56.1094 15.1719H48.4219C47.4531 15.1719 46.651 14.8177 46.0156 14.1094C45.3906 13.3906 45.0781 12.6042 45.0781 11.75C45.0781 11.1875 45.2448 10.6927 45.5781 10.2656L53.7031 0.984375C54.2031 0.421875 54.8229 0.114583 55.5625 0.0625C56.2917 0.0208333 56.9479 0.25 57.5312 0.75L59.5781 2.5L53.0938 9.89062H56.1562C57.7917 9.89062 59.1927 10.2448 60.3594 10.9531C61.526 11.6615 62.4167 12.5885 63.0312 13.7344C63.6458 14.8698 63.9531 16.0781 63.9531 17.3594C63.9531 19.349 63.276 21.0729 61.9219 22.5312C60.5677 23.9896 58.6458 24.7188 56.1562 24.7188H42.2656V19.4062Z" fill="#51A46B"/>
</svg>
